{
.appVersion = "3109";
copyright = "Copyright 2017-2022 Google Inc. All Rights Reserved.";
customParameters = (
{
name = unicodeRanges;
value = (
0,
1,
57
);
},
{
name = glyphOrder;
value = (
.notdef,
NULL,
CR,
space,
nbspace,
uni00A0,
u11AC0,
u11AC1,
u11AC2,
u11AC3,
u11AC4,
u11AC5,
u11AC6,
u11AC7,
u11AC8,
u11AC9,
u11ACA,
u11ACB,
u11ACC,
u11ACD,
u11ACE,
u11ACF,
u11AD0,
u11AD1,
u11AD2,
u11AD3,
u11AD4,
u11AD5,
u11AD6,
u11AD7,
u11AD8,
u11AD9,
u11ADA,
u11ADB,
u11ADC,
u11ADD,
u11ADE,
u11ADF,
u11AE0,
u11AE1,
u11AE2,
u11AE3,
u11AE4,
u11AE5,
u11AE6,
u11AE7,
u11AE8,
u11AE9,
u11AEA,
u11AEB,
u11AEC,
u11AED,
u11AEE,
u11AEF,
u11AF0,
u11AF1,
u11AF2,
u11AF3,
u11AF4,
u11AF5,
u11AF6,
u11AF7,
u11AF8
);
},
{
name = "Has WWS Names";
value = 1;
},
{
name = fsType;
value = (
);
},
{
name = codePageRanges;
value = (
1252
);
},
{
name = description;
value = "Designed by Monotype design team.";
},
{
name = license;
value = "This Font Software is licensed under the SIL Open Font License, Version 1.1. This Font Software is distributed on an \"AS IS\" BASIS, WITHOUT WARRANTIES OR CONDITIONS OF ANY KIND, either express or implied. See the SIL Open Font License for the specific language, permissions and limitations governing your use of this Font Software.";
},
{
name = licenseURL;
value = "http://scripts.sil.org/OFL";
},
{
name = vendorID;
value = GOOG;
},
{
name = trademark;
value = "Noto is a trademark of Google Inc.";
},
{
name = versionString;
value = "Version 2.000";
}
);
date = "2017-11-03 15:08:16 +0000";
designer = "Monotype Design Team";
designerURL = "http://www.monotype.com/studio";
disablesAutomaticAlignment = 1;
disablesNiceNames = 1;
familyName = "Noto Sans PauCinHau";
featurePrefixes = (
{
code = "";
name = Languagesystems;
}
);
features = (
{
code = "# Automatic Code Start\012";
name = kern;
}
);
fontMaster = (
{
alignmentZones = (
"{1069, 15}",
"{714, 15}",
"{536, 15}",
"{0, -15}",
"{-293, -15}"
);
ascender = 1069;
capHeight = 714;
customParameters = (
{
name = typoAscender;

glyphs = (
{
glyphname = .notdef;
lastChange = "2017-12-06 17:49:08 +0000";
layers = (
{
layerId = "7C5BF59D-7654-4B4F-ABB3-02620379C849";
paths = (
{
closed = 1;
nodes = (
"505 0 LINE",
"505 714 LINE",
"94 714 LINE",
"94 0 LINE"
);
},
{
closed = 1;
nodes = (
"454 663 LINE",
"454 51 LINE",
"145 51 LINE",
"145 663 LINE"
);
}
);
width = 600;
}
);
note = ".notdef";
},
{
glyphname = u11AC0;
lastChange = "2017-12-06 17:49:08 +0000";
layers = (
{
layerId = "7C5BF59D-7654-4B4F-ABB3-02620379C849";
paths = (
{
closed = 1;
nodes = (
"546 -10 OFFCURVE",
"681 54 OFFCURVE",
"681 189 CURVE SMOOTH",
"681 268 OFFCURVE",
"620 330 OFFCURVE",
"536 330 CURVE SMOOTH",
"484 330 OFFCURVE",
"434 295 OFFCURVE",
"412 245 CURVE",
"417 126 LINE",
"421 197 OFFCURVE",
"478 246 OFFCURVE",
"526 246 CURVE SMOOTH",
"568 246 OFFCURVE",
"591 221 OFFCURVE",
"591 186 CURVE SMOOTH",
"591 118 OFFCURVE",
"536 69 OFFCURVE",
"382 69 CURVE SMOOTH",
"233 69 OFFCURVE",
"151 180 OFFCURVE",
"151 357 CURVE SMOOTH",
"151 536 OFFCURVE",
"245 645 OFFCURVE",
"387 645 CURVE SMOOTH",
"487 645 OFFCURVE",
"551 619 OFFCURVE",
"604 581 CURVE",
"646 646 LINE",
"588 695 OFFCURVE",
"507 724 OFFCURVE",
"414 724 CURVE SMOOTH",
"183 724 OFFCURVE",
"61 574 OFFCURVE",
"61 358 CURVE SMOOTH",
"61 133 OFFCURVE",
"170 -10 OFFCURVE",
"399 -10 CURVE SMOOTH"
);
},
{
closed = 1;
nodes = (
"417 19 LINE",
"417 177 LINE",
"414 224 LINE",
"419 282 OFFCURVE",
"421 321 OFFCURVE",
"421 369 CURVE SMOOTH",
"421 688 LINE",
"341 688 LINE",
"341 19 LINE"
);
}
);
width = 716;
}
);
leftKerningGroup = Ka;
leftMetricsKey = u11AE4;
rightKerningGroup = Pa;
unicode = 11AC0;
},
{
glyphname = u11AC1;
lastChange = "2017-12-06 17:49:08 +0000";
layers = (
{
layerId = "7C5BF59D-7654-4B4F-ABB3-02620379C849";
paths = (
{
closed = 1;
nodes = (
"606 -10 OFFCURVE",
"720 137 OFFCURVE",
"720 358 CURVE SMOOTH",
"720 580 OFFCURVE",
"606 724 OFFCURVE",
"392 724 CURVE SMOOTH",
"168 724 OFFCURVE",
"61 578 OFFCURVE",
"61 359 CURVE SMOOTH",
"61 138 OFFCURVE",
"168 -10 OFFCURVE",
"391 -10 CURVE SMOOTH"
);
},
{
closed = 1;
nodes = (
"305 172 OFFCURVE",
"358 246 OFFCURVE",
"358 359 CURVE SMOOTH",
"358 472 OFFCURVE",
"305 546 OFFCURVE",
"211 616 CURVE",
"165 555 LINE",
"230 504 OFFCURVE",
"273 444 OFFCURVE",
"273 359 CURVE SMOOTH",
"273 274 OFFCURVE",
"230 214 OFFCURVE",
"165 163 CURVE",
"211 102 LINE"
);
},
{
closed = 1;
nodes = (
"225 68 OFFCURVE",
"151 178 OFFCURVE",
"151 358 CURVE SMOOTH",
"151 538 OFFCURVE",
"225 646 OFFCURVE",
"392 646 CURVE SMOOTH",
"553 646 OFFCURVE",
"625 538 OFFCURVE",
"625 358 CURVE SMOOTH",
"625 178 OFFCURVE",
"553 68 OFFCURVE",
"391 68 CURVE SMOOTH"
);
}
);
width = 781;
}
);
leftKerningGroup = Ka;
leftMetricsKey = u11AE4;
rightKerningGroup = Ka;
unicode = 11AC1;
},
{
glyphname = u11AC2;
lastChange = "2017-12-06 17:49:08 +0000";
layers = (
{
layerId = "7C5BF59D-7654-4B4F-ABB3-02620379C849";
paths = (
{
closed = 1;
nodes = (
"468 -10 OFFCURVE",
"520 -1 OFFCURVE",
"573 19 CURVE",
"573 97 LINE",
"519 81 OFFCURVE",
"464 69 OFFCURVE",
"402 69 CURVE SMOOTH",
"238 69 OFFCURVE",
"156 180 OFFCURVE",
"156 357 CURVE SMOOTH",
"156 536 OFFCURVE",
"250 645 OFFCURVE",
"403 645 CURVE SMOOTH",
"467 645 OFFCURVE",
"521 626 OFFCURVE",
"565 606 CURVE",
"601 682 LINE",
"547 709 OFFCURVE",
"477 724 OFFCURVE",
"404 724 CURVE SMOOTH",
"183 724 OFFCURVE",
"61 574 OFFCURVE",
"61 358 CURVE SMOOTH",
"61 133 OFFCURVE",
"170 -10 OFFCURVE",
"389 -10 CURVE SMOOTH"
);
}
);
width = 632;
}
);
leftKerningGroup = Ka;
leftMetricsKey = u11AE4;
rightKerningGroup = La;
unicode = 11AC2;
},
{
glyphname = u11AC3;
lastChange = "2017-12-06 17:49:08 +0000";
layers = (
{
layerId = "7C5BF59D-7654-4B4F-ABB3-02620379C849";
paths = (
{
closed = 1;
nodes = (
"606 -10 OFFCURVE",
"720 137 OFFCURVE",
"720 358 CURVE SMOOTH",
"720 580 OFFCURVE",
"606 725 OFFCURVE",
"392 725 CURVE SMOOTH",
"168 725 OFFCURVE",
"61 578 OFFCURVE",
"61 359 CURVE SMOOTH",
"61 138 OFFCURVE",
"168 -10 OFFCURVE",
"391 -10 CURVE SMOOTH"
);
},
{
closed = 1;
nodes = (
"246 169 OFFCURVE",
"306 212 OFFCURVE",
"391 212 CURVE SMOOTH",
"476 212 OFFCURVE",
"536 169 OFFCURVE",
"587 104 CURVE",
"645 155 LINE",
"578 244 OFFCURVE",
"504 297 OFFCURVE",
"391 297 CURVE SMOOTH",
"278 297 OFFCURVE",
"204 244 OFFCURVE",
"139 155 CURVE",
"195 104 LINE"
);
},
{
closed = 1;
nodes = (
"230 68 OFFCURVE",
"156 178 OFFCURVE",
"156 358 CURVE SMOOTH",
"156 538 OFFCURVE",
"230 646 OFFCURVE",
"392 646 CURVE SMOOTH",
"553 646 OFFCURVE",
"625 538 OFFCURVE",
"625 358 CURVE SMOOTH",
"625 178 OFFCURVE",
"553 68 OFFCURVE",
"391 68 CURVE SMOOTH"
);
}
);
width = 781;
}
);
leftKerningGroup = Ka;
leftMetricsKey = u11AE4;
rightKerningGroup = Ka;
unicode = 11AC3;
},
{
glyphname = u11AC4;
lastChange = "2017-12-06 17:49:08 +0000";
layers = (
{
layerId = "7C5BF59D-7654-4B4F-ABB3-02620379C849";
paths = (
{
closed = 1;
nodes = (
"98 0 LINE",
"349 0 LINE SMOOTH",
"502 0 OFFCURVE",
"597 73 OFFCURVE",
"597 203 CURVE SMOOTH",
"597 314 OFFCURVE",
"527 359 OFFCURVE",
"437 374 CURVE",
"437 379 LINE",
"525 395 OFFCURVE",
"573 453 OFFCURVE",
"573 537 CURVE SMOOTH",
"573 667 OFFCURVE",
"480 714 OFFCURVE",
"302 714 CURVE SMOOTH",
"98 714 LINE"
);
},
{
closed = 1;
nodes = (
"188 637 LINE",
"306 637 LINE SMOOTH",
"427 637 OFFCURVE",
"480 605 OFFCURVE",
"480 527 CURVE SMOOTH",
"480 450 OFFCURVE",
"442 410 OFFCURVE",
"320 410 CURVE SMOOTH",
"188 410 LINE"
);
},
{
closed = 1;
nodes = (
"325 335 LINE",
"457 335 OFFCURVE",
"501 285 OFFCURVE",
"501 210 CURVE SMOOTH",
"501 130 OFFCURVE",
"458 76 OFFCURVE",
"332 76 CURVE SMOOTH",
"188 76 LINE",
"188 335 LINE"
);
}
);
width = 646;
}
);
leftKerningGroup = Ca;
leftMetricsKey = u11ACD;
rightKerningGroup = Da;
unicode = 11AC4;
},
{
glyphname = u11AC5;
lastChange = "2017-12-06 17:49:08 +0000";
layers = (
{
layerId = "7C5BF59D-7654-4B4F-ABB3-02620379C849";
paths = (
{
closed = 1;
nodes = (
"561 -10 OFFCURVE",
"650 104 OFFCURVE",
"650 252 CURVE SMOOTH",
"650 714 LINE",
"561 714 LINE",
"561 252 LINE SMOOTH",
"561 144 OFFCURVE",
"506 68 OFFCURVE",
"377 68 CURVE SMOOTH",
"252 68 OFFCURVE",
"190 135 OFFCURVE",
"190 251 CURVE SMOOTH",
"190 714 LINE",
"100 714 LINE",
"100 254 LINE SMOOTH",
"100 95 OFFCURVE",
"194 -10 OFFCURVE",
"372 -10 CURVE SMOOTH"
);
},
{
closed = 1;
nodes = (
"294 635 LINE",
"294 714 LINE",
"10 714 LINE",
"10 635 LINE"
);
}
);
width = 741;
}
);
leftKerningGroup = Za;
rightKerningGroup = Za;
unicode = 11AC5;
},
{
glyphname = u11AC6;
lastChange = "2017-12-06 17:49:08 +0000";
layers = (
{
layerId = "7C5BF59D-7654-4B4F-ABB3-02620379C849";
paths = (
{
closed = 1;
nodes = (
"180 -1 LINE",
"180 463 LINE SMOOTH",
"180 572 OFFCURVE",
"235 649 OFFCURVE",
"365 649 CURVE SMOOTH",
"490 649 OFFCURVE",
"553 581 OFFCURVE",
"553 464 CURVE SMOOTH",
"553 -1 LINE",
"643 -1 LINE",
"643 461 LINE SMOOTH",
"643 621 OFFCURVE",
"549 727 OFFCURVE",
"370 727 CURVE SMOOTH",
"180 727 OFFCURVE",
"90 612 OFFCURVE",
"90 463 CURVE SMOOTH",
"90 -1 LINE"
);
},
{
closed = 1;
nodes = (
"734 -1 LINE",
"734 78 LINE",
"448 78 LINE",
"448 -1 LINE"
);
}
);
width = 744;
}
);
leftKerningGroup = Va;
rightKerningGroup = Va;
unicode = 11AC6;
},
{
glyphname = u11AC7;
lastChange = "2017-12-06 17:49:08 +0000";
layers = (
{
layerId = "7C5BF59D-7654-4B4F-ABB3-02620379C849";
paths = (
{
closed = 1;
nodes = (
"482 0 LINE",
"482 79 LINE",
"165 79 LINE",
"165 250 LINE",
"217 250 LINE SMOOTH",
"412 250 OFFCURVE",
"512 343 OFFCURVE",
"512 487 CURVE SMOOTH",
"512 620 OFFCURVE",
"431 714 OFFCURVE",
"244 714 CURVE SMOOTH",
"171 714 OFFCURVE",
"107 697 OFFCURVE",
"60 676 CURVE",
"88 603 LINE",
"135 622 OFFCURVE",
"189 635 OFFCURVE",
"246 635 CURVE SMOOTH",
"362 635 OFFCURVE",
"419 575 OFFCURVE",
"419 483 CURVE SMOOTH",
"419 377 OFFCURVE",
"360 329 OFFCURVE",
"207 329 CURVE SMOOTH",
"75 329 LINE",
"75 0 LINE"
);
}
);
width = 552;
}
);
leftKerningGroup = Nga;
rightKerningGroup = Nga;
unicode = 11AC7;
},
{
glyphname = u11AC8;
lastChange = "2017-12-06 17:49:08 +0000";
layers = (
{
layerId = "7C5BF59D-7654-4B4F-ABB3-02620379C849";
paths = (
{
closed = 1;
nodes = (
"493 -10 OFFCURVE",
"632 115 OFFCURVE",
"632 364 CURVE SMOOTH",
"632 599 OFFCURVE",
"507 724 OFFCURVE",
"312 724 CURVE SMOOTH",
"207 724 OFFCURVE",
"110 683 OFFCURVE",
"41 632 CURVE",
"86 565 LINE",
"139 602 OFFCURVE",
"215 645 OFFCURVE",
"312 645 CURVE SMOOTH",
"438 645 OFFCURVE",
"537 566 OFFCURVE",
"537 367 CURVE SMOOTH",
"537 161 OFFCURVE",
"432 70 OFFCURVE",
"301 70 CURVE SMOOTH",
"184 70 OFFCURVE",
"130 117 OFFCURVE",
"130 176 CURVE SMOOTH",
"130 230 OFFCURVE",
"183 271 OFFCURVE",
"270 271 CURVE SMOOTH",
"363 271 OFFCURVE",
"450 223 OFFCURVE",
"508 138 CURVE",
"549 204 LINE",
"486 288 OFFCURVE",
"391 355 OFFCURVE",
"270 355 CURVE SMOOTH",
"128 355 OFFCURVE",
"40 283 OFFCURVE",
"40 177 CURVE SMOOTH",
"40 74 OFFCURVE",
"133 -10 OFFCURVE",
"294 -10 CURVE SMOOTH"
);
}
);
width = 693;
}
);
leftKerningGroup = Ha;
rightKerningGroup = Ka;
rightMetricsKey = u11AE4;
unicode = 11AC8;
},
{
glyphname = u11AC9;
lastChange = "2017-12-06 17:49:08 +0000";
layers = (
{
layerId = "7C5BF59D-7654-4B4F-ABB3-02620379C849";
paths = (
{
closed = 1;
nodes = (
"551 662 LINE",
"497 725 LINE",
"289 553 LINE SMOOTH",
"225 500 OFFCURVE",
"200 476 OFFCURVE",
"175 451 CURVE",
"175 361 LINE"
);
},
{
closed = 1;
nodes = (
"188 0 LINE",
"188 714 LINE",
"98 714 LINE",
"98 0 LINE"
);
}
);
width = 551;
}
);
leftKerningGroup = Ca;
leftMetricsKey = u11ACD;
rightKerningGroup = Ga;
unicode = 11AC9;
},
{
glyphname = u11ACA;
lastChange = "2017-12-06 17:49:08 +0000";
layers = (
{
layerId = "7C5BF59D-7654-4B4F-ABB3-02620379C849";
paths = (
{
closed = 1;
nodes = (
"377 -10 OFFCURVE",
"495 128 OFFCURVE",
"495 359 CURVE SMOOTH",
"495 597 OFFCURVE",
"393 724 OFFCURVE",
"202 724 CURVE SMOOTH",
"141 724 OFFCURVE",
"84 712 OFFCURVE",
"30 689 CURVE",
"52 612 LINE",
"101 634 OFFCURVE",
"148 645 OFFCURVE",
"191 645 CURVE SMOOTH",
"327 645 OFFCURVE",
"400 545 OFFCURVE",
"400 360 CURVE SMOOTH",
"400 176 OFFCURVE",
"321 69 OFFCURVE",
"188 69 CURVE SMOOTH",
"136 69 OFFCURVE",
"83 83 OFFCURVE",
"30 110 CURVE",
"30 22 LINE",
"74 1 OFFCURVE",
"125 -10 OFFCURVE",
"183 -10 CURVE SMOOTH"
);
},
{
closed = 1;
nodes = (
"852 0 LINE",
"544 365 LINE",
"841 714 LINE",
"736 714 LINE",
"458 389 LINE",
"483 305 LINE",
"746 0 LINE"
);
}
);
width = 852;
}
);
leftKerningGroup = Kha;
rightKerningGroup = Kha;
unicode = 11ACA;
},
{
glyphname = u11ACB;
lastChange = "2017-12-06 17:49:08 +0000";
layers = (
{
layerId = "7C5BF59D-7654-4B4F-ABB3-02620379C849";
paths = (
{
closed = 1;
nodes = (
"510 -10 OFFCURVE",
"619 54 OFFCURVE",
"683 126 CURVE",
"636 184 LINE",
"575 122 OFFCURVE",
"494 70 OFFCURVE",
"388 70 CURVE SMOOTH",
"258 70 OFFCURVE",
"156 180 OFFCURVE",
"156 357 CURVE SMOOTH",
"156 536 OFFCURVE",
"256 645 OFFCURVE",
"389 645 CURVE SMOOTH",
"472 645 OFFCURVE",
"536 593 OFFCURVE",
"565 503 CURVE",
"587 539 LINE",
"94 320 LINE",
"115 242 LINE",
"671 492 LINE",
"664 518 OFFCURVE",
"651 550 OFFCURVE",
"636 578 CURVE SMOOTH",
"593 659 OFFCURVE",
"505 724 OFFCURVE",
"393 724 CURVE SMOOTH",
"193 724 OFFCURVE",
"61 574 OFFCURVE",
"61 358 CURVE SMOOTH",
"61 133 OFFCURVE",
"191 -10 OFFCURVE",
"384 -10 CURVE SMOOTH"
);
}
);
width = 712;
}
);
leftKerningGroup = Ka;
leftMetricsKey = u11AE4;
rightKerningGroup = Sa;
unicode = 11ACB;
},
{
glyphname = u11ACC;
lastChange = "2017-12-06 17:49:08 +0000";
layers = (
{
layerId = "7C5BF59D-7654-4B4F-ABB3-02620379C849";
paths = (
{
closed = 1;
nodes = (
"395 -10 OFFCURVE",
"469 5 OFFCURVE",
"520 29 CURVE",
"520 107 LINE",
"455 78 OFFCURVE",
"390 64 OFFCURVE",
"326 64 CURVE SMOOTH",
"217 64 OFFCURVE",
"150 110 OFFCURVE",
"150 194 CURVE SMOOTH",
"150 290 OFFCURVE",
"213 332 OFFCURVE",
"348 332 CURVE SMOOTH",
"416 332 LINE",
"416 407 LINE",
"375 407 LINE SMOOTH",
"238 407 OFFCURVE",
"175 447 OFFCURVE",
"175 531 CURVE SMOOTH",
"175 609 OFFCURVE",
"227 650 OFFCURVE",
"322 650 CURVE SMOOTH",
"380 650 OFFCURVE",
"434 633 OFFCURVE",
"486 599 CURVE",
"522 665 LINE",
"467 702 OFFCURVE",
"393 724 OFFCURVE",
"312 724 CURVE SMOOTH",
"162 724 OFFCURVE",
"82 662 OFFCURVE",
"82 547 CURVE SMOOTH",
"82 456 OFFCURVE",
"138 394 OFFCURVE",
"234 378 CURVE",
"234 374 LINE",
"118 357 OFFCURVE",
"56 295 OFFCURVE",
"56 201 CURVE SMOOTH",
"56 75 OFFCURVE",
"161 -10 OFFCURVE",
"321 -10 CURVE SMOOTH"
);
}
);
width = 542;
}
);
leftKerningGroup = Ba;
rightKerningGroup = Ba;
unicode = 11ACC;
},
{
glyphname = u11ACD;
lastChange = "2017-12-06 17:49:08 +0000";
layers = (
{
layerId = "7C5BF59D-7654-4B4F-ABB3-02620379C849";
paths = (
{
closed = 1;
nodes = (
"198 0 LINE",
"512 594 LINE",
"516 594 LINE",
"514 567 OFFCURVE",
"508 456 OFFCURVE",
"508 388 CURVE SMOOTH",
"508 0 LINE",
"592 0 LINE",
"592 714 LINE",
"492 714 LINE",
"179 123 LINE",
"175 123 LINE",
"178 150 OFFCURVE",
"182 267 OFFCURVE",
"182 322 CURVE SMOOTH",
"182 714 LINE",
"98 714 LINE",
"98 0 LINE"
);
}
);
width = 690;
}
);
leftKerningGroup = Ca;
rightKerningGroup = Ca;
unicode = 11ACD;
},
{
glyphname = u11ACE;
lastChange = "2017-12-06 17:49:08 +0000";
layers = (
{
layerId = "7C5BF59D-7654-4B4F-ABB3-02620379C849";
paths = (
{
closed = 1;
nodes = (
"500 0 LINE",
"500 80 LINE",
"188 80 LINE",
"188 714 LINE",
"98 714 LINE",
"98 0 LINE"
);
}
);
width = 505;
}
);
leftKerningGroup = Ca;
leftMetricsKey = u11ACD;
rightKerningGroup = Ta;
unicode = 11ACE;
},
{
glyphname = u11ACF;
lastChange = "2017-12-06 17:49:08 +0000";
layers = (
{
layerId = "7C5BF59D-7654-4B4F-ABB3-02620379C849";
paths = (
{
closed = 1;
nodes = (
"536 -10 OFFCURVE",
"655 48 OFFCURVE",
"655 170 CURVE SMOOTH",
"655 253 OFFCURVE",
"590 310 OFFCURVE",
"495 310 CURVE SMOOTH",
"409 310 OFFCURVE",
"348 261 OFFCURVE",
"323 179 CURVE SMOOTH",
"315 153 OFFCURVE",
"312 119 OFFCURVE",
"312 88 CURVE SMOOTH",
"312 77 OFFCURVE",
"312 66 OFFCURVE",
"313 56 CURVE",
"384 56 LINE",
"384 181 OFFCURVE",
"442 226 OFFCURVE",
"500 226 CURVE SMOOTH",
"545 226 OFFCURVE",
"570 202 OFFCURVE",
"570 163 CURVE SMOOTH",
"570 111 OFFCURVE",
"511 69 OFFCURVE",
"402 69 CURVE SMOOTH",
"233 69 OFFCURVE",
"151 180 OFFCURVE",
"151 357 CURVE SMOOTH",
"151 536 OFFCURVE",
"245 645 OFFCURVE",
"403 645 CURVE SMOOTH",
"506 645 OFFCURVE",
"565 606 OFFCURVE",
"565 555 CURVE SMOOTH",
"565 516 OFFCURVE",
"540 488 OFFCURVE",
"495 488 CURVE SMOOTH",
"437 488 OFFCURVE",
"379 533 OFFCURVE",
"379 658 CURVE",
"308 658 LINE",
"307 648 OFFCURVE",
"306 636 OFFCURVE",
"306 623 CURVE SMOOTH",
"306 597 OFFCURVE",
"309 568 OFFCURVE",
"315 545 CURVE SMOOTH",
"338 457 OFFCURVE",
"400 404 OFFCURVE",
"490 404 CURVE SMOOTH",
"585 404 OFFCURVE",
"650 467 OFFCURVE",
"650 544 CURVE SMOOTH",
"650 666 OFFCURVE",
"540 724 OFFCURVE",
"402 724 CURVE SMOOTH",
"183 724 OFFCURVE",
"61 574 OFFCURVE",
"61 358 CURVE SMOOTH",
"61 133 OFFCURVE",
"170 -10 OFFCURVE",
"399 -10 CURVE SMOOTH"
);
}
);
width = 695;
}
);
leftKerningGroup = Ka;
leftMetricsKey = u11AE4;
rightKerningGroup = Tha;
unicode = 11ACF;
},
{
glyphname = u11AD0;
lastChange = "2017-12-06 17:49:08 +0000";
layers = (
{
layerId = "7C5BF59D-7654-4B4F-ABB3-02620379C849";
paths = (
{
closed = 1;
nodes = (
"498 -10 OFFCURVE",
"587 28 OFFCURVE",
"646 66 CURVE",
"612 131 LINE",
"557 98 OFFCURVE",
"484 69 OFFCURVE",
"398 69 CURVE SMOOTH",
"233 69 OFFCURVE",
"151 180 OFFCURVE",
"151 357 CURVE SMOOTH",
"151 536 OFFCURVE",
"245 645 OFFCURVE",
"399 645 CURVE SMOOTH",
"497 645 OFFCURVE",
"551 619 OFFCURVE",
"604 581 CURVE",
"646 646 LINE",
"588 695 OFFCURVE",
"507 724 OFFCURVE",
"414 724 CURVE SMOOTH",
"183 724 OFFCURVE",
"61 574 OFFCURVE",
"61 358 CURVE SMOOTH",
"61 133 OFFCURVE",
"170 -10 OFFCURVE",
"399 -10 CURVE SMOOTH"
);
},
{
closed = 1;
nodes = (
"438 19 LINE",
"438 688 LINE",
"358 688 LINE",
"358 19 LINE"
);
}
);
width = 677;
}
);
leftKerningGroup = Ka;
leftMetricsKey = u11AC2;
rightKerningGroup = La;
rightMetricsKey = u11AC2;
unicode = 11AD0;
},
{
glyphname = u11AD1;
lastChange = "2017-12-06 17:49:08 +0000";
layers = (
{
layerId = "7C5BF59D-7654-4B4F-ABB3-02620379C849";
paths = (
{
closed = 1;
nodes = (
"533 0 LINE",
"533 80 LINE",
"147 80 LINE",
"523 646 LINE",
"523 714 LINE",
"50 714 LINE",
"50 634 LINE",
"414 634 LINE",
"38 68 LINE",
"38 0 LINE"
);
}
);
width = 572;
}
);
leftKerningGroup = Pha;
rightKerningGroup = Pha;
unicode = 11AD1;
},
{
glyphname = u11AD2;
lastChange = "2017-12-06 17:49:08 +0000";
layers = (
{
layerId = "7C5BF59D-7654-4B4F-ABB3-02620379C849";
paths = (
{
closed = 1;
nodes = (
"180 0 LINE",
"180 244 LINE",
"252 244 LINE SMOOTH",
"456 244 OFFCURVE",
"527 369 OFFCURVE",
"527 487 CURVE SMOOTH",
"527 620 OFFCURVE",
"446 725 OFFCURVE",
"269 725 CURVE SMOOTH",
"181 725 OFFCURVE",
"107 702 OFFCURVE",
"60 681 CURVE",
"88 608 LINE",
"135 627 OFFCURVE",
"199 646 OFFCURVE",
"261 646 CURVE SMOOTH",
"377 646 OFFCURVE",
"434 575 OFFCURVE",
"434 483 CURVE SMOOTH",
"434 378 OFFCURVE",
"368 323 OFFCURVE",
"242 323 CURVE SMOOTH",
"90 323 LINE",
"90 0 LINE"
);
}
);
width = 578;
}
);
leftKerningGroup = Nga;
rightKerningGroup = Ra;
rightMetricsKey = u11AE2;
unicode = 11AD2;
},
{
glyphname = u11AD3;
lastChange = "2017-12-06 17:49:08 +0000";
layers = (
{
layerId = "7C5BF59D-7654-4B4F-ABB3-02620379C849";
paths = (
{
closed = 1;
nodes = (
"607 0 LINE",
"607 312 LINE SMOOTH",
"607 452 OFFCURVE",
"518 536 OFFCURVE",
"379 536 CURVE SMOOTH",
"294 536 OFFCURVE",
"216 491 OFFCURVE",
"170 433 CURVE",
"184 359 LINE",
"230 413 OFFCURVE",
"295 457 OFFCURVE",
"379 457 CURVE SMOOTH",
"459 457 OFFCURVE",
"517 414 OFFCURVE",
"517 312 CURVE SMOOTH",
"517 0 LINE"
);
},
{
closed = 1;
nodes = (
"188 0 LINE",
"188 714 LINE",
"98 714 LINE",
"98 0 LINE"
);
}
);
width = 687;
}
);
leftKerningGroup = Ca;
leftMetricsKey = u11ACD;
rightKerningGroup = Fa;
unicode = 11AD3;
},
{
glyphname = u11AD4;
lastChange = "2017-12-06 17:49:08 +0000";
layers = (
{
layerId = "7C5BF59D-7654-4B4F-ABB3-02620379C849";
paths = (
{
closed = 1;
nodes = (
"195 0 LINE",
"195 333 LINE",
"467 333 LINE",
"467 0 LINE",
"557 0 LINE",
"557 544 LINE SMOOTH",
"557 615 OFFCURVE",
"583 643 OFFCURVE",
"616 643 CURVE SMOOTH",
"647 643 OFFCURVE",
"677 620 OFFCURVE",
"677 557 CURVE SMOOTH",
"677 462 OFFCURVE",
"619 410 OFFCURVE",
"547 410 CURVE",
"547 336 LINE",
"634 336 OFFCURVE",
"767 388 OFFCURVE",
"767 551 CURVE SMOOTH",
"767 667 OFFCURVE",
"706 728 OFFCURVE",
"616 728 CURVE SMOOTH",
"526 728 OFFCURVE",
"467 669 OFFCURVE",
"467 551 CURVE SMOOTH",
"467 412 LINE",
"195 412 LINE",
"195 714 LINE",
"105 714 LINE",
"105 0 LINE"
);
},
{
closed = 1;
nodes = (
"169 635 LINE",
"169 714 LINE",
"15 714 LINE",
"15 635 LINE"
);
}
);
width = 777;
}
);
leftKerningGroup = Cha;
rightKerningGroup = Cha;
rightMetricsKey = u11ADE;
unicode = 11AD4;
},
{
glyphname = u11AD5;
lastChange = "2017-12-06 17:49:08 +0000";
layers = (
{
layerId = "7C5BF59D-7654-4B4F-ABB3-02620379C849";
paths = (
{
closed = 1;
nodes = (
"418 -10 OFFCURVE",
"486 70 OFFCURVE",
"486 200 CURVE SMOOTH",
"486 374 OFFCURVE",
"294 583 OFFCURVE",
"53 728 CURVE",
"5 648 LINE",
"226 526 OFFCURVE",
"396 344 OFFCURVE",
"396 200 CURVE SMOOTH",
"396 111 OFFCURVE",
"357 69 OFFCURVE",
"307 69 CURVE SMOOTH",
"257 69 OFFCURVE",
"218 111 OFFCURVE",
"218 200 CURVE SMOOTH",
"218 344 OFFCURVE",
"388 526 OFFCURVE",
"609 648 CURVE",
"561 728 LINE",
"320 583 OFFCURVE",
"128 374 OFFCURVE",
"128 200 CURVE SMOOTH",
"128 70 OFFCURVE",
"196 -10 OFFCURVE",
"307 -10 CURVE SMOOTH"
);
}
);
width = 614;
}
);
leftKerningGroup = A;
rightKerningGroup = A;
unicode = 11AD5;
},
{
glyphname = u11AD6;
lastChange = "2017-12-06 17:49:08 +0000";
layers = (
{
layerId = "7C5BF59D-7654-4B4F-ABB3-02620379C849";
paths = (
{
closed = 1;
nodes = (
"379 -10 OFFCURVE",
"445 1 OFFCURVE",
"491 24 CURVE",
"491 110 LINE",
"431 84 OFFCURVE",
"354 68 OFFCURVE",
"291 68 CURVE SMOOTH",
"184 68 OFFCURVE",
"130 111 OFFCURVE",
"130 183 CURVE SMOOTH",
"130 263 OFFCURVE",
"188 290 OFFCURVE",
"298 330 CURVE SMOOTH",
"430 378 OFFCURVE",
"502 438 OFFCURVE",
"502 542 CURVE SMOOTH",
"502 653 OFFCURVE",
"411 724 OFFCURVE",
"274 724 CURVE SMOOTH",
"203 724 OFFCURVE",
"137 711 OFFCURVE",
"77 684 CURVE",
"105 607 LINE",
"166 632 OFFCURVE",
"223 645 OFFCURVE",
"276 645 CURVE SMOOTH",
"360 645 OFFCURVE",
"411 607 OFFCURVE",
"411 541 CURVE SMOOTH",
"411 462 OFFCURVE",
"338 435 OFFCURVE",
"235 397 CURVE SMOOTH",
"114 352 OFFCURVE",
"40 306 OFFCURVE",
"40 191 CURVE SMOOTH",
"40 66 OFFCURVE",
"129 -10 OFFCURVE",
"295 -10 CURVE SMOOTH"
);
}
);
width = 542;
}
);
leftKerningGroup = E;
rightKerningGroup = E;
unicode = 11AD6;
},
{
glyphname = u11AD7;
lastChange = "2017-12-06 17:49:08 +0000";
layers = (
{
layerId = "7C5BF59D-7654-4B4F-ABB3-02620379C849";
paths = (
{
closed = 1;
nodes = (
"500 -9 LINE",
"500 457 LINE SMOOTH",
"500 629 OFFCURVE",
"420 715 OFFCURVE",
"261 715 CURVE SMOOTH",
"93 715 OFFCURVE",
"10 617 OFFCURVE",
"10 434 CURVE",
"99 434 LINE",
"99 569 OFFCURVE",
"151 637 OFFCURVE",
"256 637 CURVE SMOOTH",
"362 637 OFFCURVE",
"410 579 OFFCURVE",
"410 439 CURVE SMOOTH",
"410 -9 LINE"
);
}
);
width = 587;
}
);
leftKerningGroup = I;
rightKerningGroup = I;
unicode = 11AD7;
},
{
glyphname = u11AD8;
lastChange = "2017-12-06 17:49:08 +0000";
layers = (
{
layerId = "7C5BF59D-7654-4B4F-ABB3-02620379C849";
paths = (
{
closed = 1;
nodes = (
"91 0 LINE",
"287 517 LINE SMOOTH",
"296 540 OFFCURVE",
"308 583 OFFCURVE",
"318 624 CURVE",
"325 599 OFFCURVE",
"346 533 OFFCURVE",
"352 517 CURVE SMOOTH",
"545 0 LINE",
"638 0 LINE",
"360 717 LINE",
"279 717 LINE",
"0 0 LINE"
);
},
{
closed = 1;
nodes = (
"475 203 LINE",
"448 283 LINE",
"190 283 LINE",
"160 203 LINE"
);
}
);
width = 638;
}
);
leftKerningGroup = O;
rightKerningGroup = O;
unicode = 11AD8;
},
{
glyphname = u11AD9;
lastChange = "2017-12-06 17:49:08 +0000";
layers = (
{
layerId = "7C5BF59D-7654-4B4F-ABB3-02620379C849";
paths = (
{
closed = 1;
nodes = (
"375 -10 OFFCURVE",
"446 11 OFFCURVE",
"517 47 CURVE",
"455 109 LINE",
"418 85 OFFCURVE",
"360 70 OFFCURVE",
"301 70 CURVE SMOOTH",
"182 70 OFFCURVE",
"130 153 OFFCURVE",
"130 237 CURVE SMOOTH",
"130 319 OFFCURVE",
"191 393 OFFCURVE",
"297 393 CURVE SMOOTH",
"366 393 OFFCURVE",
"424 368 OFFCURVE",
"480 305 CURVE",
"480 411 LINE",
"427 452 OFFCURVE",
"379 477 OFFCURVE",
"297 477 CURVE SMOOTH",
"130 477 OFFCURVE",
"40 359 OFFCURVE",
"40 238 CURVE SMOOTH",
"40 104 OFFCURVE",
"124 -10 OFFCURVE",
"294 -10 CURVE SMOOTH"
);
},
{
closed = 1;
nodes = (
"517 47 LINE",
"517 714 LINE",
"427 714 LINE",
"427 47 LINE"
);
}
);
width = 607;
}
);
leftKerningGroup = U;
rightKerningGroup = U;
unicode = 11AD9;
},
{
glyphname = u11ADA;
lastChange = "2017-12-06 17:49:08 +0000";
layers = (
{
layerId = "7C5BF59D-7654-4B4F-ABB3-02620379C849";
paths = (
{
closed = 1;
nodes = (
"400 -9 LINE",
"400 477 LINE SMOOTH",
"400 648 OFFCURVE",
"332 715 OFFCURVE",
"210 715 CURVE SMOOTH",
"72 715 OFFCURVE",
"10 617 OFFCURVE",
"10 484 CURVE",
"99 484 LINE",
"99 569 OFFCURVE",
"130 637 OFFCURVE",
"205 637 CURVE SMOOTH",
"281 637 OFFCURVE",
"310 589 OFFCURVE",
"310 459 CURVE SMOOTH",
"310 -9 LINE"
);
},
{
closed = 1;
nodes = (
"535 257 LINE",
"535 336 LINE",
"134 336 LINE",
"134 257 LINE"
);
}
);
width = 545;
}
);
leftKerningGroup = Ua;
rightKerningGroup = Ua;
unicode = 11ADA;
},
{
glyphname = u11ADB;
lastChange = "2017-12-06 17:49:08 +0000";
layers = (
{
layerId = "7C5BF59D-7654-4B4F-ABB3-02620379C849";
paths = (
{
closed = 1;
nodes = (
"91 0 LINE",
"273 481 LINE SMOOTH",
"299 549 OFFCURVE",
"306 575 OFFCURVE",
"319 624 CURVE",
"333 575 OFFCURVE",
"343 542 OFFCURVE",
"366 481 CURVE SMOOTH",
"545 0 LINE",
"638 0 LINE",
"360 717 LINE",
"279 717 LINE",
"0 0 LINE"
);
}
);
width = 638;
}
);
leftKerningGroup = O;
rightKerningGroup = O;
unicode = 11ADB;
},
{
glyphname = u11ADC;
lastChange = "2017-12-06 17:49:08 +0000";
layers = (
{
layerId = "7C5BF59D-7654-4B4F-ABB3-02620379C849";
paths = (
{
closed = 1;
nodes = (
"595 -10 OFFCURVE",
"708 137 OFFCURVE",
"708 409 CURVE SMOOTH",
"708 624 OFFCURVE",
"637 724 OFFCURVE",
"525 724 CURVE SMOOTH",
"432 724 OFFCURVE",
"371 652 OFFCURVE",
"371 529 CURVE SMOOTH",
"371 372 OFFCURVE",
"485 275 OFFCURVE",
"629 275 CURVE",
"642 346 LINE",
"517 346 OFFCURVE",
"456 431 OFFCURVE",
"456 529 CURVE SMOOTH",
"456 604 OFFCURVE",
"485 639 OFFCURVE",
"525 639 CURVE SMOOTH",
"576 639 OFFCURVE",
"618 580 OFFCURVE",
"618 412 CURVE SMOOTH",
"618 178 OFFCURVE",
"542 68 OFFCURVE",
"385 68 CURVE SMOOTH",
"229 68 OFFCURVE",
"150 178 OFFCURVE",
"150 358 CURVE SMOOTH",
"150 482 OFFCURVE",
"185 610 OFFCURVE",
"223 714 CURVE",
"128 714 LINE",
"93 620 OFFCURVE",
"60 490 OFFCURVE",
"60 359 CURVE SMOOTH",
"60 138 OFFCURVE",
"167 -10 OFFCURVE",
"385 -10 CURVE SMOOTH"
);
}
);
width = 768;
}
);
leftKerningGroup = P;
rightKerningGroup = P;
unicode = 11ADC;
},
{
glyphname = u11ADD;
lastChange = "2017-12-06 17:49:08 +0000";
layers = (
{
layerId = "7C5BF59D-7654-4B4F-ABB3-02620379C849";
paths = (
{
closed = 1;
nodes = (
"323 0 LINE",
"323 635 LINE",
"545 635 LINE",
"545 714 LINE",
"10 714 LINE",
"10 635 LINE",
"233 635 LINE",
"233 0 LINE"
);
}
);
width = 555;
}
);
leftKerningGroup = K;
rightKerningGroup = K;
unicode = 11ADD;
},
{
glyphname = u11ADE;
lastChange = "2017-12-06 17:49:08 +0000";
layers = (
{
layerId = "7C5BF59D-7654-4B4F-ABB3-02620379C849";
paths = (
{
closed = 1;
nodes = (
"188 0 LINE",
"188 333 LINE",
"460 333 LINE",
"460 0 LINE",
"550 0 LINE",
"550 544 LINE SMOOTH",
"550 615 OFFCURVE",
"576 643 OFFCURVE",
"609 643 CURVE SMOOTH",
"640 643 OFFCURVE",
"670 620 OFFCURVE",
"670 557 CURVE SMOOTH",
"670 462 OFFCURVE",
"612 410 OFFCURVE",
"540 410 CURVE",
"540 336 LINE",
"627 336 OFFCURVE",
"760 388 OFFCURVE",
"760 551 CURVE SMOOTH",
"760 667 OFFCURVE",
"699 728 OFFCURVE",
"609 728 CURVE SMOOTH",
"519 728 OFFCURVE",
"460 669 OFFCURVE",
"460 551 CURVE SMOOTH",
"460 412 LINE",
"188 412 LINE",
"188 714 LINE",
"98 714 LINE",
"98 0 LINE"
);
}
);
width = 770;
}
);
leftKerningGroup = Ca;
leftMetricsKey = u11ACD;
rightKerningGroup = Cha;
unicode = 11ADE;
},
{
glyphname = u11ADF;
lastChange = "2017-12-06 17:49:08 +0000";
layers = (
{
layerId = "7C5BF59D-7654-4B4F-ABB3-02620379C849";
paths = (
{
closed = 1;
nodes = (
"547 717 LINE",
"365 236 LINE SMOOTH",
"339 168 OFFCURVE",
"332 142 OFFCURVE",
"319 93 CURVE",
"305 142 OFFCURVE",
"295 175 OFFCURVE",
"272 236 CURVE SMOOTH",
"93 717 LINE",
"0 717 LINE",
"278 0 LINE",
"359 0 LINE",
"638 717 LINE"
);
}
);
width = 638;
}
);
leftKerningGroup = M;
rightKerningGroup = M;
unicode = 11ADF;
},
{
glyphname = u11AE0;
lastChange = "2017-12-06 17:49:08 +0000";
layers = (
{
layerId = "7C5BF59D-7654-4B4F-ABB3-02620379C849";
paths = (
{
closed = 1;
nodes = (
"521 -10 OFFCURVE",
"603 50 OFFCURVE",
"603 146 CURVE SMOOTH",
"603 210 OFFCURVE",
"569 256 OFFCURVE",
"484 281 CURVE",
"484 286 LINE",
"546 307 OFFCURVE",
"584 343 OFFCURVE",
"584 404 CURVE SMOOTH",
"584 492 OFFCURVE",
"512 546 OFFCURVE",
"398 546 CURVE SMOOTH",
"345 546 OFFCURVE",
"289 532 OFFCURVE",
"258 516 CURVE",
"281 450 LINE",
"309 462 OFFCURVE",
"348 473 OFFCURVE",
"399 473 CURVE SMOOTH",
"459 473 OFFCURVE",
"500 448 OFFCURVE",
"500 397 CURVE SMOOTH",
"500 342 OFFCURVE",
"449 315 OFFCURVE",
"347 315 CURVE SMOOTH",
"321 315 LINE",
"321 243 LINE",
"364 243 LINE SMOOTH",
"465 243 OFFCURVE",
"515 212 OFFCURVE",
"515 151 CURVE SMOOTH",
"515 93 OFFCURVE",
"466 62 OFFCURVE",
"373 62 CURVE SMOOTH",
"224 62 OFFCURVE",
"151 126 OFFCURVE",
"151 341 CURVE SMOOTH",
"151 425 LINE SMOOTH",
"151 600 OFFCURVE",
"231 653 OFFCURVE",
"384 653 CURVE SMOOTH",
"416 653 OFFCURVE",
"441 650 OFFCURVE",
"465 645 CURVE",
"490 713 LINE",
"461 721 OFFCURVE",
"424 725 OFFCURVE",
"385 725 CURVE SMOOTH",
"203 725 OFFCURVE",
"61 652 OFFCURVE",
"61 425 CURVE SMOOTH",
"61 332 LINE SMOOTH",
"61 77 OFFCURVE",
"183 -10 OFFCURVE",
"368 -10 CURVE SMOOTH"
);
}
);
width = 628;
}
);
leftKerningGroup = N;
leftMetricsKey = u11AE4;
rightKerningGroup = N;
unicode = 11AE0;
},
{
glyphname = u11AE1;
lastChange = "2017-12-06 17:49:08 +0000";
layers = (
{
layerId = "7C5BF59D-7654-4B4F-ABB3-02620379C849";
paths = (
{
closed = 1;
nodes = (
"179 -10 LINE",
"179 452 LINE SMOOTH",
"179 560 OFFCURVE",
"234 636 OFFCURVE",
"363 636 CURVE SMOOTH",
"488 636 OFFCURVE",
"550 569 OFFCURVE",
"550 453 CURVE SMOOTH",
"550 -10 LINE",
"640 -10 LINE",
"640 450 LINE SMOOTH",
"640 609 OFFCURVE",
"546 714 OFFCURVE",
"368 714 CURVE SMOOTH",
"179 714 OFFCURVE",
"90 600 OFFCURVE",
"90 452 CURVE SMOOTH",
"90 -10 LINE"
);
}
);
width = 731;
}
);
leftKerningGroup = Va;
rightKerningGroup = L;
unicode = 11AE1;
},
{
glyphname = u11AE2;
lastChange = "2017-12-06 17:49:08 +0000";
layers = (
{
layerId = "7C5BF59D-7654-4B4F-ABB3-02620379C849";
paths = (
{
closed = 1;
nodes = (
"188 0 LINE",
"188 635 LINE",
"279 635 LINE SMOOTH",
"405 635 OFFCURVE",
"462 575 OFFCURVE",
"462 483 CURVE SMOOTH",
"462 378 OFFCURVE",
"396 323 OFFCURVE",
"260 323 CURVE SMOOTH",
"172 323 LINE",
"172 244 LINE",
"270 244 LINE SMOOTH",
"484 244 OFFCURVE",
"555 369 OFFCURVE",
"555 487 CURVE SMOOTH",
"555 620 OFFCURVE",
"474 714 OFFCURVE",
"287 714 CURVE SMOOTH",
"98 714 LINE",
"98 0 LINE"
);
}
);
width = 606;
}
);
leftKerningGroup = Ca;
leftMetricsKey = u11ACD;
rightKerningGroup = Ra;
unicode = 11AE2;
},
{
glyphname = u11AE3;
lastChange = "2017-12-06 17:49:08 +0000";
layers = (
{
layerId = "7C5BF59D-7654-4B4F-ABB3-02620379C849";
paths = (
{
closed = 1;
nodes = (
"423 187 OFFCURVE",
"543 322 OFFCURVE",
"543 462 CURVE SMOOTH",
"543 616 OFFCURVE",
"435 725 OFFCURVE",
"281 725 CURVE SMOOTH",
"181 725 OFFCURVE",
"97 696 OFFCURVE",
"24 657 CURVE",
"64 587 LINE",
"132 624 OFFCURVE",
"198 646 OFFCURVE",
"271 646 CURVE SMOOTH",
"366 646 OFFCURVE",
"448 583 OFFCURVE",
"448 462 CURVE SMOOTH",
"448 350 OFFCURVE",
"372 266 OFFCURVE",
"224 266 CURVE SMOOTH",
"159 266 OFFCURVE",
"134 297 OFFCURVE",
"134 327 CURVE SMOOTH",
"134 357 OFFCURVE",
"158 385 OFFCURVE",
"212 385 CURVE SMOOTH",
"272 385 OFFCURVE",
"320 340 OFFCURVE",
"333 254 CURVE",
"412 292 LINE",
"392 382 OFFCURVE",
"330 464 OFFCURVE",
"212 464 CURVE SMOOTH",
"106 464 OFFCURVE",
"44 396 OFFCURVE",
"44 327 CURVE SMOOTH",
"44 256 OFFCURVE",
"104 187 OFFCURVE",
"234 187 CURVE SMOOTH"
);
},
{
closed = 1;
nodes = (
"432 0 LINE",
"432 91 OFFCURVE",
"430 214 OFFCURVE",
"415 272 CURVE",
"333 234 LINE",
"341 174 OFFCURVE",
"342 89 OFFCURVE",
"342 0 CURVE"
);
}
);
width = 573;
}
);
leftKerningGroup = Ng;
rightKerningGroup = Ng;
unicode = 11AE3;
},
{
glyphname = u11AE4;
lastChange = "2017-12-06 17:49:08 +0000";
layers = (
{
layerId = "7C5BF59D-7654-4B4F-ABB3-02620379C849";
paths = (
{
closed = 1;
nodes = (
"606 -10 OFFCURVE",
"720 137 OFFCURVE",
"720 358 CURVE SMOOTH",
"720 580 OFFCURVE",
"606 725 OFFCURVE",
"392 725 CURVE SMOOTH",
"168 725 OFFCURVE",
"61 578 OFFCURVE",
"61 359 CURVE SMOOTH",
"61 138 OFFCURVE",
"168 -10 OFFCURVE",
"391 -10 CURVE SMOOTH"
);
},
{
closed = 1;
nodes = (
"230 68 OFFCURVE",
"156 178 OFFCURVE",
"156 358 CURVE SMOOTH",
"156 538 OFFCURVE",
"230 646 OFFCURVE",
"392 646 CURVE SMOOTH",
"553 646 OFFCURVE",
"625 538 OFFCURVE",
"625 358 CURVE SMOOTH",
"625 178 OFFCURVE",
"553 68 OFFCURVE",
"391 68 CURVE SMOOTH"
);
}
);
width = 781;
}
);
leftKerningGroup = Ka;
rightKerningGroup = Ka;
unicode = 11AE4;
},
{
glyphname = u11AE5;
lastChange = "2017-12-06 17:49:08 +0000";
layers = (
{
layerId = "7C5BF59D-7654-4B4F-ABB3-02620379C849";
paths = (
{
closed = 1;
nodes = (
"175 0 LINE",
"175 714 LINE",
"85 714 LINE",
"85 0 LINE"
);
}
);
width = 260;
}
);
leftKerningGroup = Ca;
rightKerningGroup = Rising_Long;
unicode = 11AE5;
},
{
glyphname = u11AEB;
lastChange = "2017-12-06 17:49:08 +0000";
layers = (
{
layerId = "7C5BF59D-7654-4B4F-ABB3-02620379C849";
paths = (
{
closed = 1;
nodes = (
"175 0 LINE",
"175 393 LINE SMOOTH",
"175 502 OFFCURVE",
"168 579 OFFCURVE",
"161 628 CURVE",
"165 630 LINE",
"192 585 OFFCURVE",
"216 551 OFFCURVE",
"267 489 CURVE SMOOTH",
"312 434 LINE",
"375 488 LINE",
"198 714 LINE",
"85 714 LINE",
"85 0 LINE"
);
}
);
width = 375;
}
);
leftKerningGroup = Ca;
leftMetricsKey = u11AE5;
rightKerningGroup = Sandhi_Long;
unicode = 11AEB;
},
{
glyphname = u11AEC;
lastChange = "2017-12-06 17:49:08 +0000";
layers = (
{
components = (
{
name = u11AEB;
}
);
layerId = "7C5BF59D-7654-4B4F-ABB3-02620379C849";
paths = (
{
closed = 1;
nodes = (
"343 170 OFFCURVE",
"370 188 OFFCURVE",
"370 231 CURVE SMOOTH",
"370 275 OFFCURVE",
"343 291 OFFCURVE",
"311 291 CURVE SMOOTH",
"279 291 OFFCURVE",
"254 275 OFFCURVE",
"254 231 CURVE SMOOTH",
"254 188 OFFCURVE",
"279 170 OFFCURVE",
"311 170 CURVE SMOOTH"
);
}
);
width = 375;
}
);
leftKerningGroup = Ca;
rightKerningGroup = Sandhi_Tone;
unicode = 11AEC;
},
{
glyphname = u11AEE;
lastChange = "2017-12-06 17:49:08 +0000";
layers = (
{
components = (
{
name = u11AED;
}
);
layerId = "7C5BF59D-7654-4B4F-ABB3-02620379C849";
paths = (
{
closed = 1;
nodes = (
"683 170 OFFCURVE",
"710 188 OFFCURVE",
"710 231 CURVE SMOOTH",
"710 275 OFFCURVE",
"683 291 OFFCURVE",
"651 291 CURVE SMOOTH",
"619 291 OFFCURVE",
"594 275 OFFCURVE",
"594 231 CURVE SMOOTH",
"594 188 OFFCURVE",
"619 170 OFFCURVE",
"651 170 CURVE SMOOTH"
);
}
);
width = 708;
}
);
leftKerningGroup = Ca;
rightKerningGroup = Sandhi_Tone;
unicode = 11AEE;
},
{
glyphname = u11AEF;
lastChange = "2017-12-06 17:49:08 +0000";
layers = (
{
layerId = "7C5BF59D-7654-4B4F-ABB3-02620379C849";
paths = (
{
closed = 1;
nodes = (
"189 296 OFFCURVE",
"216 314 OFFCURVE",
"216 357 CURVE SMOOTH",
"216 401 OFFCURVE",
"189 417 OFFCURVE",
"157 417 CURVE SMOOTH",
"125 417 OFFCURVE",
"100 401 OFFCURVE",
"100 357 CURVE SMOOTH",
"100 314 OFFCURVE",
"125 296 OFFCURVE",
"157 296 CURVE SMOOTH"
);
}
);
width = 316;
}
);
leftKerningGroup = Rising;
rightKerningGroup = Rising;
unicode = 11AEF;
},
{
glyphname = u11AF0;
lastChange = "2017-12-06 17:49:08 +0000";
layers = (
{
layerId = "7C5BF59D-7654-4B4F-ABB3-02620379C849";
paths = (
{
closed = 1;
nodes = (
"189 132 OFFCURVE",
"216 150 OFFCURVE",
"216 193 CURVE SMOOTH",
"216 237 OFFCURVE",
"189 253 OFFCURVE",
"157 253 CURVE SMOOTH",
"125 253 OFFCURVE",
"100 237 OFFCURVE",
"100 193 CURVE SMOOTH",
"100 150 OFFCURVE",
"125 132 OFFCURVE",
"157 132 CURVE SMOOTH"
);
},
{
closed = 1;
nodes = (
"189 450 OFFCURVE",
"216 468 OFFCURVE",
"216 511 CURVE SMOOTH",
"216 555 OFFCURVE",
"189 571 OFFCURVE",
"157 571 CURVE SMOOTH",
"125 571 OFFCURVE",
"100 555 OFFCURVE",
"100 511 CURVE SMOOTH",
"100 468 OFFCURVE",
"125 450 OFFCURVE",
"157 450 CURVE SMOOTH"
);
}
);
width = 316;
}
);
leftKerningGroup = Sandhi;
rightKerningGroup = Sandhi;
unicode = 11AF0;
},
{
glyphname = u11AF1;
lastChange = "2017-12-06 17:49:08 +0000";
layers = (
{
layerId = "7C5BF59D-7654-4B4F-ABB3-02620379C849";
paths = (
{
closed = 1;
nodes = (
"776 262 LINE",
"776 361 LINE",
"92 361 LINE",
"92 276 LINE",
"495 276 LINE SMOOTH",
"573 276 OFFCURVE",
"642 277 OFFCURVE",
"688 280 CURVE",
"668 255 OFFCURVE",
"641 221 OFFCURVE",
"588 154 CURVE SMOOTH",
"549 104 LINE",
"618 53 LINE"
);
},
{
closed = 1;
nodes = (
"711 484 LINE",
"711 583 LINE",
"30 583 LINE",
"30 498 LINE",
"432 498 LINE SMOOTH",
"510 498 OFFCURVE",
"576 501 OFFCURVE",
"622 504 CURVE",
"599 478 OFFCURVE",
"576 451 OFFCURVE",
"526 392 CURVE SMOOTH",
"485 344 LINE",
"549 295 LINE"
);
}
);
width = 806;
}
);
leftKerningGroup = Mid_Level;
rightKerningGroup = Mid_Level;
unicode = 11AF1;
},
{
glyphname = u11AF2;
lastChange = "2017-12-06 17:49:08 +0000";
layers = (
{
components = (
{
name = u11AF1;
}
);
layerId = "7C5BF59D-7654-4B4F-ABB3-02620379C849";
paths = (
{
closed = 1;
nodes = (
"475 156 OFFCURVE",
"457 181 OFFCURVE",
"414 181 CURVE SMOOTH",
"370 181 OFFCURVE",
"354 156 OFFCURVE",
"354 124 CURVE SMOOTH",
"354 92 OFFCURVE",
"370 65 OFFCURVE",
"414 65 CURVE SMOOTH",
"457 65 OFFCURVE",
"475 92 OFFCURVE",
"475 124 CURVE SMOOTH"
);
}
);
width = 806;
}
);
leftKerningGroup = Mid_Level;
leftMetricsKey = u11AF1;
rightKerningGroup = Mid_Level;
rightMetricsKey = u11AF1;
unicode = 11AF2;
},
{
glyphname = u11AF3;
lastChange = "2017-12-06 17:49:08 +0000";
layers = (
{
layerId = "7C5BF59D-7654-4B4F-ABB3-02620379C849";
paths = (
{
closed = 1;
nodes = (
"193 0 LINE",
"375 226 LINE",
"315 284 LINE",
"266 226 LINE SMOOTH",
"230 184 OFFCURVE",
"193 136 OFFCURVE",
"169 101 CURVE",
"172 147 OFFCURVE",
"175 213 OFFCURVE",
"175 291 CURVE SMOOTH",
"175 714 LINE",
"85 714 LINE",
"85 0 LINE"
);
}
);
width = 375;
}
);
leftKerningGroup = Ca;
rightKerningGroup = Falling_long;
unicode = 11AF3;
},
{
glyphname = u11AF4;
lastChange = "2017-12-06 17:49:08 +0000";
layers = (
{
layerId = "7C5BF59D-7654-4B4F-ABB3-02620379C849";
paths = (
{
closed = 1;
nodes = (
"85 0 LINE",
"198 0 LINE",
"375 226 LINE",
"312 280 LINE",
"267 225 LINE",
"216 163 OFFCURVE",
"192 129 OFFCURVE",
"165 84 CURVE",
"161 86 LINE",
"168 135 OFFCURVE",
"175 212 OFFCURVE",
"175 321 CURVE SMOOTH",
"175 714 LINE",
"85 714 LINE"
);
},
{
closed = 1;
nodes = (
"279 544 OFFCURVE",
"254 526 OFFCURVE",
"254 483 CURVE SMOOTH",
"254 439 OFFCURVE",
"279 423 OFFCURVE",
"311 423 CURVE SMOOTH",
"343 423 OFFCURVE",
"370 439 OFFCURVE",
"370 483 CURVE SMOOTH",
"370 526 OFFCURVE",
"343 544 OFFCURVE",
"311 544 CURVE SMOOTH"
);
}
);
width = 375;
}
);
leftKerningGroup = Ca;
rightKerningGroup = Falling;
unicode = 11AF4;
},
{
glyphname = u11AF5;
lastChange = "2017-12-06 17:49:08 +0000";
layers = (
{
layerId = "7C5BF59D-7654-4B4F-ABB3-02620379C849";
paths = (
{
closed = 1;
nodes = (
"279 480 OFFCURVE",
"254 462 OFFCURVE",
"254 419 CURVE SMOOTH",
"254 375 OFFCURVE",
"279 359 OFFCURVE",
"311 359 CURVE SMOOTH",
"343 359 OFFCURVE",
"370 375 OFFCURVE",
"370 419 CURVE SMOOTH",
"370 462 OFFCURVE",
"343 480 OFFCURVE",
"311 480 CURVE SMOOTH"
);
},
{
closed = 1;
nodes = (
"279 670 OFFCURVE",
"254 652 OFFCURVE",
"254 609 CURVE SMOOTH",
"254 565 OFFCURVE",
"279 549 OFFCURVE",
"311 549 CURVE SMOOTH",
"343 549 OFFCURVE",
"370 565 OFFCURVE",
"370 609 CURVE SMOOTH",
"370 652 OFFCURVE",
"343 670 OFFCURVE",
"311 670 CURVE SMOOTH"
);
},
{
closed = 1;
nodes = (
"85 0 LINE",
"198 0 LINE",
"375 226 LINE",
"312 280 LINE",
"267 225 LINE",
"216 163 OFFCURVE",
"192 129 OFFCURVE",
"165 84 CURVE",
"161 86 LINE",
"168 135 OFFCURVE",
"175 212 OFFCURVE",
"175 321 CURVE SMOOTH",
"175 714 LINE",
"85 714 LINE"
);
}
);
width = 375;
}
);
leftKerningGroup = Ca;
rightKerningGroup = Glottal_Stop;
unicode = 11AF5;
},
{
glyphname = u11AF7;
lastChange = "2017-12-06 17:49:08 +0000";
layers = (
{
components = (
{
name = u11AF6;
}
);
layerId = "7C5BF59D-7654-4B4F-ABB3-02620379C849";
paths = (
{
closed = 1;
nodes = (
"606 544 OFFCURVE",
"581 526 OFFCURVE",
"581 483 CURVE SMOOTH",
"581 439 OFFCURVE",
"606 423 OFFCURVE",
"638 423 CURVE SMOOTH",
"670 423 OFFCURVE",
"697 439 OFFCURVE",
"697 483 CURVE SMOOTH",
"697 526 OFFCURVE",
"670 544 OFFCURVE",
"638 544 CURVE SMOOTH"
);
}
);
width = 702;
}
);
leftKerningGroup = Ca;
rightKerningGroup = Falling;
unicode = 11AF7;
},
